<svg width="7" height="10" viewBox="0 0 7 10" fill="none" xmlns="http://www.w3.org/2000/svg">
<path d="M0.111438 9.32031V7.85631L2.90744 5.56431C3.45944 5.10831 3.83944 4.74431 4.04744 4.47231C4.25544 4.19231 4.35944 3.88431 4.35944 3.54831C4.35944 3.20431 4.25544 2.93631 4.04744 2.74431C3.83944 2.55231 3.56744 2.45631 3.23144 2.45631C2.91944 2.45631 2.63544 2.54431 2.37944 2.72031C2.13144 2.88831 1.84344 3.17631 1.51544 3.58431L0.219438 2.54031C0.659438 1.94031 1.11144 1.50031 1.57544 1.22031C2.04744 0.940312 2.63944 0.800312 3.35144 0.800312C4.22344 0.800312 4.92344 1.04031 5.45144 1.52031C5.97944 1.99231 6.24344 2.62431 6.24344 3.41631C6.24344 3.87231 6.15544 4.28431 5.97944 4.65231C5.80344 5.01231 5.57544 5.33231 5.29544 5.61231C5.01544 5.88431 4.59544 6.23631 4.03544 6.66831L2.66744 7.72431H6.32744V9.32031H0.111438Z" fill="#ED8F03"/>
</svg>
